<svg width="256px" height="256px" viewBox="0 0 60.00 60.00" xmlns="http://www.w3.org/2000/svg" fill="#b0abab" stroke="#b0abab" stroke-width="0.0006000000000000001"><g id="SVGRepo_bgCarrier" stroke-width="0"></g><g id="SVGRepo_tracerCarrier" stroke-linecap="round" stroke-linejoin="round" stroke="#CCCCCC" stroke-width="0.48"></g><g id="SVGRepo_iconCarrier"><defs><filter id="a" width="200%" height="200%" x="-50%" y="-50%" filterUnits="objectBoundingBox"><feOffset dy="1" in="SourceAlpha" result="shadowOffsetOuter1"></feOffset><feGaussianBlur stdDeviation="10" in="shadowOffsetOuter1" result="shadowBlurOuter1"></feGaussianBlur><feColorMatrix values="0 0 0 0 0 0 0 0 0 0 0 0 0 0 0 0 0 0 0.1 0" in="shadowBlurOuter1" result="shadowMatrixOuter1"></feColorMatrix><feMerge><feMergeNode in="shadowMatrixOuter1"></feMergeNode><feMergeNode in="SourceGraphic"></feMergeNode></feMerge></filter></defs><path fill-rule="evenodd" d="M26.289 18.711c.393-.393 1.162-.711 1.702-.711h4.018c.547 0 1.299.313 1.691.711l1.27 1.289h2.036c1.654 0 2.994 1.504 2.994 3.386v10.229c0 1.87-1.343 3.386-2.994 3.386h-14.012c-1.654 0-2.994-1.504-2.994-3.386v-10.229c0-1.87 1.343-3.386 2.994-3.386h2.006l1.289-1.289zm1.414 1.414l-1.289 1.289-.586.586h-2.8339999999999996c-.489 0-.994.571-.994 1.386v10.229c0 .823.499 1.386.994 1.386h14.012c.489 0 .994-.571.994-1.386v-10.229c0-.823-.499-1.386-.994-1.386h-2.873l-.588-.597-1.27-1.289-.266-.114h-4.018l-.287.125zm2.297 12.875c-2.761 0-5-2.239-5-5s2.239-5 5-5 5 2.239 5 5-2.239 5-5 5zm0-2c1.657 0 3-1.343 3-3s-1.343-3-3-3-3 1.343-3 3 1.343 3 3 3z" filter="url(#a)"></path></g></svg>