<svg fill="#FF3F4A" viewBox="0 0 35 35" xmlns="http://www.w3.org/2000/svg" stroke="#FF3F4A" ><g id="SVGRepo_bgCarrier" stroke-width="0"/><g id="SVGRepo_tracerCarrier" stroke-linecap="round" stroke-linejoin="round"/><g id="SVGRepo_iconCarrier"><path d="M1.458 28.438L1.458 10.938C1.458 8.924 3.09 7.292 5.104 7.292L7.919 7.292C8.649 7.292 9.333 6.926 9.739 6.317L10.923 4.54C11.6 3.526 12.737 2.917 13.956 2.917L21.044 2.917C22.263 2.917 23.4 3.526 24.077 4.54L25.261 6.317C25.667 6.926 26.351 7.292 27.081 7.292L29.896 7.292C31.91 7.292 33.542 8.924 33.542 10.938L33.542 28.438C33.542 30.451 31.91 32.083 29.896 32.083L5.104 32.083C3.09 32.083 1.458 30.451 1.458 28.438ZM2.917 28.438C2.917 29.645 3.897 30.625 5.104 30.625L29.896 30.625C31.103 30.625 32.083 29.645 32.083 28.438L32.083 10.938C32.083 9.73 31.103 8.75 29.896 8.75L27.081 8.75C25.862 8.75 24.725 8.14 24.048 7.127L22.864 5.349C22.458 4.741 21.774 4.375 21.044 4.375L13.956 4.375C13.226 4.375 12.542 4.741 12.136 5.349L10.952 7.127C10.275 8.14 9.138 8.75 7.919 8.75L5.104 8.75C3.897 8.75 2.917 9.73 2.917 10.938L2.917 28.438ZM17.5 27.708C12.667 27.708 8.75 23.791 8.75 18.958C8.75 14.125 12.667 10.208 17.5 10.208C22.333 10.208 26.25 14.125 26.25 18.958C26.25 23.791 22.333 27.708 17.5 27.708ZM17.5 26.25C21.526 26.25 24.792 22.985 24.792 18.958C24.792 14.932 21.526 11.667 17.5 11.667C13.474 11.667 10.208 14.932 10.208 18.958C10.208 22.985 13.474 26.25 17.5 26.25Z"/></g></svg>